<?xml version="1.0" standalone="no"?><!DOCTYPE svg PUBLIC "-//W3C//DTD SVG 1.1//EN" "http://www.w3.org/Graphics/SVG/1.1/DTD/svg11.dtd"><svg t="1524414318789" class="icon" style="" viewBox="0 0 1024 1024" version="1.1" xmlns="http://www.w3.org/2000/svg" p-id="2064" xmlns:xlink="http://www.w3.org/1999/xlink" width="200" height="200"><defs><style type="text/css"></style></defs><path d="M813.5 673c-64.7 1.4-119.1 46.1-135.4 106.1L347.9 559.4c-1.3-0.9-2.7-1.6-4.2-2.2 4.4-13.2 6.9-27.2 7.2-41.7 0.4-16.7-2.1-32.9-7.1-47.9 1.2-0.5 2.5-1.2 3.6-1.9L678 245c16.8 62 74.3 107.5 141.9 106 76.5-1.7 138.7-63.9 140.4-140.4 1.8-81.8-65.1-148.7-146.8-146.8C739 65.4 678.2 124.3 673.3 198c-3.1 0.5-6.1 1.6-8.8 3.4L324 428.7c-26.7-37.1-70.6-61.1-120-60-76.5 1.7-138.7 63.9-140.4 140.4-1.8 81.8 65.1 148.6 146.8 146.8 46.6-1 87.8-24.5 113.4-59.9l340.7 226.6c2.7 1.8 5.7 2.9 8.8 3.4 5 75.9 69.1 135.8 146.6 134.1 76.5-1.7 138.7-63.9 140.4-140.4 1.8-81.6-65.1-148.5-146.8-146.7z m7.9-565.3c51.2 2.4 92.7 43.8 95.1 95.1 2.7 58.8-45.7 107.1-104.4 104.4-51.2-2.4-92.7-43.8-95.1-95.1-2.8-58.8 45.6-107.1 104.4-104.4zM202.6 612.1c-51.2-2.4-92.7-43.8-95.1-95.1-2.7-58.8 45.7-107.1 104.4-104.4 51.2 2.4 92.7 43.8 95.1 95.1 2.8 58.7-45.6 107.1-104.4 104.4zM812 916.3c-51.2-2.4-92.7-43.8-95.1-95.1-2.7-58.8 45.7-107.1 104.4-104.4 51.2 2.4 92.7 43.8 95.1 95.1 2.7 58.8-45.6 107.2-104.4 104.4z" p-id="2065" fill="#4991e5"></path></svg>